<?xml version="1.0" encoding="UTF-8"?>
<svg width="19px" height="17px" viewBox="0 0 19 17" version="1.1" xmlns="http://www.w3.org/2000/svg" xmlns:xlink="http://www.w3.org/1999/xlink">
    <!-- Generator: Sketch 47.1 (45422) - http://www.bohemiancoding.com/sketch -->
    <title>Shape Copy</title>
    <desc>Created with Sketch.</desc>
    <defs></defs>
    <g id="Page-1" stroke="none" stroke-width="1" fill="none" fill-rule="evenodd">
        <g id="Atlas-(landing-page)" transform="translate(-491.000000, -1889.000000)" fill-rule="nonzero" fill="#FFFFFF">
            <path d="M491.782453,1899.40499 L491.782453,1899.41375 L494.950537,1899.41375 C495.022829,1898.64391 495.675157,1898.03981 496.477596,1898.03981 C497.280036,1898.03981 497.932363,1898.64391 498.004655,1899.41375 L502.728715,1899.41375 C502.801007,1898.64391 503.453335,1898.03981 504.255774,1898.03981 C505.058214,1898.03981 505.710542,1898.64391 505.782833,1899.41375 L509.217547,1899.41375 L509.217547,1899.40499 C509.696374,1898.98416 510,1898.37505 510,1897.69371 L510,1894.40769 C510,1893.13978 508.953044,1892.11152 507.661146,1892.11152 L505.035676,1892.11152 C504.711638,1890.35516 502.803984,1889 500.5,1889 C498.196016,1889 496.288362,1890.35516 495.964324,1892.11235 L493.338854,1892.11235 C492.046956,1892.11235 491,1893.14062 491,1894.40852 L491,1897.69497 C491,1898.37547 491.303626,1898.98541 491.782453,1899.40499 Z M500.5,1891.08826 C501.520591,1891.08826 502.441674,1891.52871 502.801858,1892.11319 L498.198568,1892.11319 C498.557901,1891.52746 499.478984,1891.08826 500.5,1891.08826 Z M509.217547,1900.24831 L509.217547,1903.70383 C509.217547,1904.97173 508.170591,1906 506.878693,1906 L494.121307,1906 C492.829409,1906 491.782453,1904.97173 491.782453,1903.70383 L491.782453,1900.24872 L494.950537,1900.24872 C495.022829,1901.01857 495.675157,1901.6235 496.477596,1901.6235 C497.280036,1901.6235 497.932363,1901.01857 498.004655,1900.24872 L502.728715,1900.24872 C502.801007,1901.01857 503.453335,1901.6235 504.255774,1901.6235 C505.058214,1901.6235 505.710542,1901.01857 505.782833,1900.24872 L509.217547,1900.24872 L509.217547,1900.24831 Z" id="Shape-Copy"></path>
        </g>
    </g>
</svg>