<?xml version="1.0" encoding="UTF-8"?>
<svg width="137px" height="112px" viewBox="0 0 137 112" version="1.1" xmlns="http://www.w3.org/2000/svg" xmlns:xlink="http://www.w3.org/1999/xlink">
    <!-- Generator: Sketch 47.1 (45422) - http://www.bohemiancoding.com/sketch -->
    <title>code1</title>
    <desc>Created with Sketch.</desc>
    <defs></defs>
    <g id="Page-1" stroke="none" stroke-width="1" fill="none" fill-rule="evenodd">
        <g id="Atlas-(landing-page)" transform="translate(-724.000000, -220.000000)" fill-rule="nonzero" fill="#35B9BB">
            <g id="code1" transform="translate(724.000000, 220.000000)">
                <path d="M97.6771519,95.3352008 C98.3448565,95.9896822 99.4134643,95.9896822 100.081169,95.3352008 L135.797992,57.5577922 C136.452473,56.8900877 136.452473,55.8214798 135.797992,55.1537753 L100.081169,17.3763667 C99.6517326,16.9162564 99.0094512,16.7201984 98.3962659,16.862046 C97.7830805,17.0038936 97.2921487,17.4620966 97.1083996,18.0640545 C96.9246506,18.6660123 97.0760001,19.3202733 97.5054364,19.7803836 L132.191966,56.3557838 L97.6771519,92.9311839 C97.0226705,93.5988885 97.0226705,94.6674963 97.6771519,95.3352008 Z" id="Shape"></path>
                <path d="M39.3228481,17.3763667 C38.6551435,16.7218853 37.5865357,16.7218853 36.9188312,17.3763667 L1.20200846,55.1537753 C0.547527085,55.8214798 0.547527085,56.8900877 1.20200846,57.5577922 L36.9188312,95.3352008 C37.5826821,96.0464697 38.697437,96.0849095 39.4087058,95.4210586 C40.1199747,94.7572077 40.1584145,93.6424528 39.4945636,92.9311839 L4.80803383,56.3557838 L39.3228481,19.7803836 C39.9773295,19.112679 39.9773295,18.0440712 39.3228481,17.3763667 Z" id="Shape"></path>
                <path d="M77.6174721,2.40401691 L54.1689973,109.448973 C53.9492917,110.347468 54.4807506,111.258541 55.3710057,111.509559 L55.7144367,111.509559 C56.5434118,111.526277 57.2659315,110.948261 57.4315917,110.135835 L81.0517819,3.26259438 C81.3496042,2.63892979 81.2445048,1.89749852 80.7850868,1.3811743 C80.3256687,0.864850088 79.6014815,0.674274497 78.9474243,0.897578917 C78.2933672,1.12088334 77.8369284,1.71454143 77.7891876,2.40401691 L77.6174721,2.40401691 Z" id="Shape"></path>
            </g>
        </g>
    </g>
</svg>