<?xml version="1.0" encoding="UTF-8"?>
<svg width="34px" height="34px" viewBox="0 0 34 34" version="1.1" xmlns="http://www.w3.org/2000/svg" xmlns:xlink="http://www.w3.org/1999/xlink">
    <!-- Generator: Sketch 47.1 (45422) - http://www.bohemiancoding.com/sketch -->
    <title>coin</title>
    <desc>Created with Sketch.</desc>
    <defs>
        <linearGradient x1="19.0429688%" y1="0%" x2="74.4001116%" y2="80.1060268%" id="linearGradient-1">
            <stop stop-color="#EBF78D" stop-opacity="0.92" offset="0%"></stop>
            <stop stop-color="#D3EB54" offset="100%"></stop>
        </linearGradient>
        <rect id="path-2" x="0" y="0" width="26" height="26" rx="13"></rect>
        <filter x="-26.9%" y="-19.2%" width="153.8%" height="153.8%" filterUnits="objectBoundingBox" id="filter-3">
            <feOffset dx="0" dy="2" in="SourceAlpha" result="shadowOffsetOuter1"></feOffset>
            <feGaussianBlur stdDeviation="2" in="shadowOffsetOuter1" result="shadowBlurOuter1"></feGaussianBlur>
            <feColorMatrix values="0 0 0 0 0   0 0 0 0 0   0 0 0 0 0  0 0 0 0.299450861 0" type="matrix" in="shadowBlurOuter1"></feColorMatrix>
        </filter>
    </defs>
    <g id="Page-1" stroke="none" stroke-width="1" fill="none" fill-rule="evenodd">
        <g id="Atlas-(landing-page)" transform="translate(-955.000000, -955.000000)">
            <g id="Group-8" transform="translate(891.000000, 874.000000)">
                <g id="coin" transform="translate(68.000000, 83.000000)">
                    <g id="Rectangle-10">
                        <use fill="black" fill-opacity="1" filter="url(#filter-3)" xlink:href="#path-2"></use>
                        <use fill="url(#linearGradient-1)" fill-rule="evenodd" xlink:href="#path-2"></use>
                    </g>
                    <path d="M12.298725,21.25 L12.298725,19.5650922 C10.3861566,19.3966014 8.98360656,18.6477535 8,17.6180876 L9.40255009,15.5961982 C10.0765027,16.3263249 11.0601093,16.9815668 12.298725,17.2062212 L12.298725,14.2482719 C10.4225865,13.7615207 8.38251366,13.0501152 8.38251366,10.5040323 C8.38251366,8.61319124 9.83970856,7.0031682 12.298725,6.74107143 L12.298725,5 L14.0291439,5 L14.0291439,6.77851382 C15.5045537,6.94700461 16.7431694,7.52736175 17.726776,8.44470046 L16.287796,10.3917051 C15.6320583,9.77390553 14.848816,9.38076037 14.0291439,9.17482719 L14.0291439,11.8145161 C15.9052823,12.3012673 18,13.0501152 18,15.5961982 C18,17.6742512 16.6885246,19.265553 14.0291439,19.546371 L14.0291439,21.25 L12.298725,21.25 Z M15.3770492,15.8957373 C15.3770492,15.2779378 14.8123862,14.9596774 14.0291439,14.6975806 L14.0291439,17.2062212 C14.9216758,17.0190092 15.3770492,16.4760945 15.3770492,15.8957373 Z M11.0236794,10.2793779 C11.0236794,10.8222926 11.5336976,11.1218318 12.298725,11.3464862 L12.298725,9.0625 C11.4790528,9.17482719 11.0236794,9.64285714 11.0236794,10.2793779 Z" id="$" fill="#101010"></path>
                </g>
            </g>
        </g>
    </g>
</svg>