<?xml version="1.0" encoding="UTF-8" standalone="no"?>
<svg width="32px" height="32px" viewBox="0 0 32 32" version="1.1" xmlns="http://www.w3.org/2000/svg" xmlns:xlink="http://www.w3.org/1999/xlink" xmlns:sketch="http://www.bohemiancoding.com/sketch/ns">
    <!-- Generator: Sketch Beta 3.2 (9961) - http://www.bohemiancoding.com/sketch -->
    <title>fb_logo</title>
    <desc>Created with Sketch Beta.</desc>
    <defs></defs>
    <g id="Page-1" stroke="none" stroke-width="1" fill="none" fill-rule="evenodd" sketch:type="MSPage">
        <g id="fb_logo" sketch:type="MSArtboardGroup" fill="#FFFFFF">
            <path d="M12,13.6221564 L13.7142388,13.6221564 L13.7142388,12.8246063 L13.7142388,12.0432763 L13.7142388,11.9129762 C13.7142388,11.1609234 13.7332721,9.99878853 14.2665967,9.27937811 C14.8285367,8.51749899 15.5999737,8 16.9269189,8 C19.0887671,8 20,8.31572217 20,8.31572217 L19.5713583,10.9201777 C19.5713583,10.9201777 18.8571522,10.7085072 18.1904637,10.7085072 C17.5238408,10.7085072 16.9269189,10.9526181 16.9269189,11.6363575 L16.9269189,11.9130435 L16.9269189,12.8246063 L16.9269189,13.6221564 L19.6602238,13.6221564 L19.4696945,16.1646251 L16.9269189,16.1646251 L16.9269189,25 L13.7142388,25 L13.7142388,16.1646251 L12,16.1646251 L12,13.6221564 L12,13.6221564 Z" id="Shape" sketch:type="MSShapeGroup"></path>
            <path d="M32,16 C32,7.163444 24.836556,0 16,0 C7.163444,0 0,7.163444 0,16 C0,24.836556 7.163444,32 16,32 C24.836556,32 32,24.836556 32,16 Z M2,16 C2,8.2680135 8.2680135,2 16,2 C23.7319865,2 30,8.2680135 30,16 C30,23.7319865 23.7319865,30 16,30 C8.2680135,30 2,23.7319865 2,16 Z" id="Oval-1" sketch:type="MSShapeGroup"></path>
        </g>
    </g>
</svg>