<?xml version="1.0" encoding="UTF-8"?>
<svg width="98px" height="132px" viewBox="0 0 98 132" version="1.1" xmlns="http://www.w3.org/2000/svg" xmlns:xlink="http://www.w3.org/1999/xlink">
    <!-- Generator: Sketch 47.1 (45422) - http://www.bohemiancoding.com/sketch -->
    <title>Group 2</title>
    <desc>Created with Sketch.</desc>
    <defs></defs>
    <g id="Page-1" stroke="none" stroke-width="1" fill="none" fill-rule="evenodd">
        <g id="Atlas-(landing-page)" transform="translate(-1061.000000, -328.000000)" fill-rule="nonzero" fill="#4ABC7A">
            <g id="Group-2" transform="translate(1104.394222, 393.836899) rotate(10.000000) translate(-1104.394222, -393.836899) translate(1054.894222, 326.990746)">
                <g id="Group" transform="translate(21.063830, 19.169429)">
                    <path d="M7.37365691,14.8280552 C3.30912766,14.8280552 0.00157978723,11.5022204 0.00157978723,7.41521899 C0.00157978723,3.32821758 3.30912766,0.00264753606 7.37365691,0.00264753606 C11.4381862,0.00264753606 14.745734,3.32848233 14.745734,7.41521899 C14.745734,11.5019556 11.4379229,14.8280552 7.37365691,14.8280552 Z M7.37365691,2.12067638 C4.46921809,2.12067638 2.10796277,4.49604573 2.10796277,7.41548374 C2.10796277,10.3349218 4.46921809,12.7102911 7.37365691,12.7102911 C10.2780957,12.7102911 12.6393511,10.3349218 12.6393511,7.41548374 C12.6390878,4.49604573 10.2780957,2.12067638 7.37365691,2.12067638 Z" id="Shape"></path>
                    <path d="M7.37365691,19.0638481 C3.30912766,19.0638481 0.00157978723,15.7380133 0.00157978723,11.6510119 C0.00157978723,11.0659065 0.472619681,10.5919975 1.05477128,10.5919975 C1.63692287,10.5919975 2.10796277,11.0656417 2.10796277,11.6510119 C2.10796277,14.5704499 4.46921809,16.9458193 7.37365691,16.9458193 C10.2780957,16.9458193 12.6393511,14.5704499 12.6393511,11.6510119 C12.6393511,11.0659065 13.110391,10.5919975 13.6925426,10.5919975 C14.2746941,10.5919975 14.745734,11.0656417 14.745734,11.6510119 C14.7454707,15.7380133 11.4379229,19.0638481 7.37365691,19.0638481 Z" id="Shape"></path>
                    <path d="M7.37365691,10.5922623 C6.79176862,10.5922623 6.32046543,10.1186181 6.32046543,9.53324784 L6.32046543,5.29771965 C6.32046543,4.71234943 6.79150532,4.23870523 7.37365691,4.23870523 C7.95580851,4.23870523 8.4268484,4.71234943 8.4268484,5.29771965 L8.4268484,9.53351259 C8.42658511,10.1186181 7.95554521,10.5922623 7.37365691,10.5922623 Z" id="Shape"></path>
                    <path d="M1.05477128,12.7102911 C0.472619681,12.7102911 0.00157978723,12.2366469 0.00157978723,11.6512767 L0.00157978723,7.41548374 C0.00157978723,6.83037828 0.472619681,6.35646932 1.05477128,6.35646932 C1.63692287,6.35646932 2.10796277,6.83011352 2.10796277,7.41548374 L2.10796277,11.6512767 C2.10796277,12.2366469 1.63692287,12.7102911 1.05477128,12.7102911 Z" id="Shape"></path>
                    <path d="M13.6922793,12.7102911 C13.1101277,12.7102911 12.6390878,12.2366469 12.6390878,11.6512767 L12.6390878,7.41548374 C12.6390878,6.83037828 13.1101277,6.35646932 13.6922793,6.35646932 C14.2744309,6.35646932 14.7454707,6.83011352 14.7454707,7.41548374 L14.7454707,11.6512767 C14.7454707,12.2366469 14.2744309,12.7102911 13.6922793,12.7102911 Z" id="Shape"></path>
                </g>
                <g id="Group" transform="translate(81.885638, 10.697313)">
                    <path d="M6.58007713,12.7108206 C3.09585638,12.7108206 0.261454787,9.86074805 0.261454787,6.35699883 C0.261454787,2.85324961 3.09585638,0.00317704327 6.58007713,0.00317704327 C10.0642979,0.00317704327 12.8989628,2.85324961 12.8989628,6.35699883 C12.8989628,9.86074805 10.0645612,12.7108206 6.58007713,12.7108206 Z M6.58007713,2.12120589 C4.25805319,2.12120589 2.36757447,4.02081301 2.36757447,6.35699883 C2.36757447,8.69318465 4.25805319,10.5927918 6.58007713,10.5927918 C8.90236436,10.5927918 10.7925798,8.69318465 10.7925798,6.35699883 C10.7925798,4.02081301 8.90262766,2.12120589 6.58007713,2.12120589 Z" id="Shape"></path>
                    <path d="M6.58007713,16.9466136 C3.09585638,16.9466136 0.261454787,14.096541 0.261454787,10.5927918 C0.261454787,10.0076863 0.732494681,9.53377734 1.31438298,9.53377734 C1.89653457,9.53377734 2.36757447,10.0074215 2.36757447,10.5927918 C2.36757447,12.9289776 4.25805319,14.8285847 6.58007713,14.8285847 C8.90236436,14.8285847 10.7925798,12.9289776 10.7925798,10.5927918 C10.7925798,10.0076863 11.2636197,9.53377734 11.8457713,9.53377734 C12.4279229,9.53377734 12.8989628,10.0074215 12.8989628,10.5927918 C12.8989628,14.096541 10.0645612,16.9466136 6.58007713,16.9466136 Z" id="Shape"></path>
                    <path d="M1.31438298,11.3870526 C0.732494681,11.3870526 0.261454787,10.9134084 0.261454787,10.3280382 L0.261454787,6.35699883 C0.261454787,5.77189336 0.732494681,5.29798441 1.31438298,5.29798441 C1.89653457,5.29798441 2.36757447,5.77162861 2.36757447,6.35699883 L2.36757447,10.3280382 C2.36757447,10.9134084 1.89653457,11.3870526 1.31438298,11.3870526 Z" id="Shape"></path>
                    <path d="M11.8457713,11.5525236 C11.2636197,11.5525236 10.7925798,11.0788794 10.7925798,10.4935092 L10.7925798,6.35699883 C10.7925798,5.77189336 11.2636197,5.29798441 11.8457713,5.29798441 C12.4279229,5.29798441 12.8989628,5.77162861 12.8989628,6.35699883 L12.8989628,10.4935092 C12.8989628,11.0788794 12.4279229,11.5525236 11.8457713,11.5525236 Z" id="Shape"></path>
                    <path d="M6.58007713,8.47502767 C5.99818883,8.47502767 5.52714894,8.00138347 5.52714894,7.41601325 L5.52714894,5.29824916 C5.52714894,4.71287894 5.99818883,4.23923474 6.58007713,4.23923474 C7.16222872,4.23923474 7.63326862,4.71287894 7.63326862,5.29824916 L7.63326862,7.41601325 C7.63326862,8.00138347 7.16222872,8.47502767 6.58007713,8.47502767 Z" id="Shape"></path>
                </g>
                <path d="M49.5,101.770436 C42.9344043,101.770436 40.5770984,99.5904545 40.3303883,99.3421156 C40.1329149,99.1435504 40.0218032,98.8745608 40.0218032,98.5933924 L40.0218032,87.3585732 L0.229332447,36.7721017 C-0.130595745,36.314078 -0.0523962766,35.6479579 0.402055851,35.2849807 C0.856507979,34.9220035 1.52107181,34.9974583 1.88310638,35.4586591 L41.90175,86.332653 C42.0478803,86.5208928 42.1279229,86.7504341 42.1279229,86.9903009 L42.1279229,98.0699746 C42.876742,98.5539441 45.0610612,99.6524069 49.5,99.6524069 C53.9265638,99.6524069 56.1129894,98.5602982 56.8720771,98.0681213 L56.8720771,86.9905657 C56.8720771,86.7506989 56.952383,86.5211575 57.09825,86.3329177 L97.1168936,35.4589238 C97.4789282,34.9977231 98.1432287,34.9222683 98.5979441,35.2852455 C99.0526596,35.6482227 99.1305957,36.3143427 98.7706676,36.7723665 L58.9779335,87.3588379 L58.9779335,98.5936572 C58.9779335,98.8748255 58.8668218,99.1438152 58.6693484,99.3423804 C58.4229016,99.5904545 56.065859,101.770436 49.5,101.770436 Z" id="Shape"></path>
                <path d="M45.2874973,95.4166139 C44.705609,95.4166139 44.2343059,94.9429697 44.2343059,94.3575995 L44.2343059,83.7682495 C44.2343059,83.1828793 44.7053457,82.7092351 45.2874973,82.7092351 C45.8696489,82.7092351 46.3406888,83.1828793 46.3406888,83.7682495 L46.3406888,94.3575995 C46.3404255,94.9429697 45.8693856,95.4166139 45.2874973,95.4166139 Z" id="Shape"></path>
                <path d="M45.2422101,84.8603582 C44.933625,84.8603582 44.6274096,84.7237453 44.4194043,84.4611097 L14.0495745,46.1467621 C13.6854335,45.6895327 13.7615266,45.0236774 14.216242,44.6585821 C14.6688511,44.297723 15.3331516,44.3689417 15.6951862,44.8272302 L46.065016,83.1418425 C46.4291569,83.599072 46.3530638,84.2649273 45.8983484,84.6289635 C45.7050878,84.7859624 45.4725957,84.8603582 45.2422101,84.8603582 Z" id="Shape"></path>
                <path d="M49.5,42.4690698 C44.4338856,42.4690698 0.0028962766,42.2911554 0.0028962766,36.115248 C0.0028962766,35.5298778 0.47393617,35.0562336 1.05608777,35.0562336 C1.58689628,35.0562336 2.02713032,35.451246 2.09901064,35.9653975 C3.65404787,37.7760474 21.2197021,40.351041 49.5,40.351041 C50.0821516,40.351041 50.5531915,40.8246852 50.5531915,41.4100554 C50.5531915,41.9954256 50.0821516,42.4690698 49.5,42.4690698 Z" id="Shape"></path>
                <path d="M49.5,42.4690698 C48.9181117,42.4690698 48.4468085,41.9954256 48.4468085,41.4100554 C48.4468085,40.8246852 48.9178484,40.351041 49.5,40.351041 C78.0354335,40.351041 95.6629628,37.7283917 96.9402207,35.9166828 C96.9402207,35.3313126 97.3865106,34.956951 97.9686622,34.956951 C98.5508138,34.956951 98.9971037,35.5298778 98.9971037,36.115248 C98.9971037,42.2911554 54.5661144,42.4690698 49.5,42.4690698 Z" id="Shape"></path>
                <path d="M38.9686117,32.0057426 C38.3988351,32.0057426 37.9299016,31.5485131 37.9154202,30.972674 C37.9009388,30.3873038 38.3617101,29.9025399 38.9438617,29.8879785 C42.3417207,29.8053753 45.8754415,29.761691 49.4997367,29.761691 C50.0818883,29.761691 50.5529282,30.2353352 50.5529282,30.8207054 C50.5529282,31.4060756 50.0818883,31.8797198 49.4997367,31.8797198 C45.891766,31.8797198 42.374633,31.9231394 38.9930984,32.0060073 C38.9851995,32.0057426 38.9770372,32.0057426 38.9686117,32.0057426 Z" id="Shape"></path>
                <path d="M1.03133777,37.2738098 C0.44918617,37.2738098 0.0028962766,36.700883 0.0028962766,36.1155128 C0.0028962766,35.0130788 0.0028962766,32.7205773 17.8073617,31.0462755 C18.4182128,30.9996789 18.9016277,31.4195781 18.9550771,32.0028303 C19.0085266,32.5850234 18.5827739,33.1010282 18.0048351,33.1558322 C3.47921809,34.5209018 2.11138564,36.2415355 2.05977926,36.314078 C2.06004255,36.8994482 1.61348936,37.2738098 1.03133777,37.2738098 Z" id="Shape"></path>
                <path d="M97.9439122,37.1745272 C97.4131037,37.1745272 96.9728697,36.7795148 96.9009894,36.2653633 C95.3462154,34.4547134 77.7802979,31.8797198 49.5,31.8797198 C48.9181117,31.8797198 48.4468085,31.4060756 48.4468085,30.8207054 C48.4468085,30.2355999 48.9178484,29.761691 49.5,29.761691 C54.5661144,29.761691 98.9971037,29.9396054 98.9971037,36.1155128 C98.9971037,36.700883 98.5260638,37.1745272 97.9439122,37.1745272 Z" id="Shape"></path>
                <path d="M49.5,129.302957 C40.7890532,129.302957 33.7029176,122.177908 33.7029176,113.4188 C33.7029176,112.83343 34.1739574,112.359786 34.756109,112.359786 C35.3382606,112.359786 35.8093005,112.83343 35.8093005,113.4188 C35.8093005,121.009286 41.9509867,127.185193 49.5,127.185193 C57.0490133,127.185193 63.1906995,121.009286 63.1906995,113.4188 C63.1906995,112.83343 63.6617394,112.359786 64.243891,112.359786 C64.8260426,112.359786 65.2970824,112.83343 65.2970824,113.4188 C65.2970824,122.177908 58.2109468,129.302957 49.5,129.302957 Z" id="Shape"></path>
                <path d="M49.5,133.53875 C40.7890532,133.53875 33.7029176,126.413701 33.7029176,117.654593 C33.7029176,117.069223 34.1739574,116.595579 34.756109,116.595579 C35.3382606,116.595579 35.8093005,117.069223 35.8093005,117.654593 C35.8093005,125.245079 41.9509867,131.420722 49.5,131.420722 C57.0490133,131.420722 63.1906995,125.245079 63.1906995,117.654593 C63.1906995,117.069223 63.6617394,116.595579 64.243891,116.595579 C64.8260426,116.595579 65.2970824,117.069223 65.2970824,117.654593 C65.2970824,126.413701 58.2109468,133.53875 49.5,133.53875 Z" id="Shape"></path>
                <path d="M34.756109,114.47755 C34.1739574,114.47755 33.7029176,114.003906 33.7029176,113.4188 C33.7029176,109.108611 35.3856543,105.079591 38.442016,102.07252 C38.8575,101.665064 39.5281197,101.671153 39.9312287,102.088934 C40.3385505,102.506451 40.3303883,103.176542 39.9149043,103.586116 C37.2677074,106.192086 35.8093005,109.683391 35.8093005,113.4188 C35.8093005,114.003906 35.3382606,114.47755 34.756109,114.47755 Z" id="Shape"></path>
                <path d="M64.243891,114.47755 C63.6617394,114.47755 63.1906995,114.003906 63.1906995,113.4188 C63.1906995,109.687628 61.7325559,106.194204 59.0850957,103.586116 C58.6696117,103.176542 58.6614495,102.506451 59.0687713,102.088934 C59.4800426,101.675389 60.1467128,101.662946 60.557984,102.07252 C63.6143457,105.083827 65.2970824,109.112847 65.2970824,113.4188 C65.2970824,114.003906 64.8260426,114.47755 64.243891,114.47755 Z" id="Shape"></path>
                <path d="M64.243891,118.713607 C63.6617394,118.713607 63.1906995,118.239963 63.1906995,117.654593 L63.1906995,113.4188 C63.1906995,112.83343 63.6617394,112.359786 64.243891,112.359786 C64.8260426,112.359786 65.2970824,112.83343 65.2970824,113.4188 L65.2970824,117.654593 C65.2970824,118.239963 64.8260426,118.713607 64.243891,118.713607 Z" id="Shape"></path>
                <path d="M34.756109,118.713607 C34.1739574,118.713607 33.7029176,118.239963 33.7029176,117.654593 L33.7029176,113.4188 C33.7029176,112.83343 34.1739574,112.359786 34.756109,112.359786 C35.3382606,112.359786 35.8093005,112.83343 35.8093005,113.4188 L35.8093005,117.654593 C35.8093005,118.239963 35.3382606,118.713607 34.756109,118.713607 Z" id="Shape"></path>
                <path d="M49.5,133.53875 C48.9181117,133.53875 48.4468085,133.065106 48.4468085,132.479736 L48.4468085,128.243943 C48.4468085,127.658838 48.9178484,127.185193 49.5,127.185193 C50.0821516,127.185193 50.5531915,127.658838 50.5531915,128.243943 L50.5531915,132.479736 C50.5531915,133.065106 50.0821516,133.53875 49.5,133.53875 Z" id="Shape"></path>
                <path d="M57.9250053,130.879036 C57.343117,130.879036 56.8720771,130.405391 56.8720771,129.820021 L56.8720771,125.586346 C56.8720771,125.000976 57.343117,124.527332 57.9250053,124.527332 C58.5071569,124.527332 58.9781968,125.000976 58.9781968,125.586346 L58.9781968,129.820021 C58.9781968,130.405391 58.5071569,130.879036 57.9250053,130.879036 Z" id="Shape"></path>
                <path d="M41.0749947,130.881154 C40.4931064,130.881154 40.0218032,130.407509 40.0218032,129.822139 L40.0218032,125.586346 C40.0218032,125.000976 40.4928431,124.527332 41.0749947,124.527332 C41.6571463,124.527332 42.1281862,125.000976 42.1281862,125.586346 L42.1281862,129.822139 C42.1279229,130.407509 41.656883,130.881154 41.0749947,130.881154 Z" id="Shape"></path>
                <path d="M49.5,120.831372 C48.9181117,120.831372 48.4468085,120.357727 48.4468085,119.772357 L48.4468085,107.064978 C48.4468085,106.479608 48.9178484,106.005964 49.5,106.005964 C50.0821516,106.005964 50.5531915,106.479608 50.5531915,107.064978 L50.5531915,119.772357 C50.5531915,120.357727 50.0821516,120.831372 49.5,120.831372 Z" id="Shape"></path>
                <path d="M53.712766,39.2922913 C53.1306144,39.2922913 52.6595745,38.8186471 52.6595745,38.2332769 C52.6595745,37.0657135 51.7153883,36.115248 50.5531915,36.115248 C49.3909947,36.115248 48.4468085,37.0657135 48.4468085,38.2332769 C48.4468085,38.8183823 47.9757686,39.2922913 47.393617,39.2922913 C46.8114654,39.2922913 46.3404255,38.8186471 46.3404255,38.2332769 C46.3404255,35.8970911 48.2309043,33.9974839 50.5531915,33.9974839 C52.8754787,33.9974839 54.7656941,35.8970911 54.7656941,38.2332769 C54.7656941,38.8186471 54.2946543,39.2922913 53.712766,39.2922913 Z" id="Shape"></path>
                <path d="M15.7999787,12.8185192 C14.0577367,12.8185192 12.6404043,11.3936153 12.6404043,9.64147597 C12.6404043,7.88986611 14.0577367,6.46469745 15.7999787,6.46469745 C17.5422207,6.46469745 18.9595532,7.88986611 18.9595532,9.64147597 C18.9592899,11.3936153 17.5422207,12.8185192 15.7999787,12.8185192 Z M15.7999787,8.5827263 C15.2199335,8.5827263 14.7467872,9.05742951 14.7467872,9.64174072 C14.7467872,10.2260519 15.2199335,10.7007551 15.7999787,10.7007551 C16.3800239,10.7007551 16.8531702,10.2260519 16.8531702,9.64174072 C16.8529069,9.05742951 16.3797606,8.5827263 15.7999787,8.5827263 Z" id="Shape"></path>
                <path d="M65.2970824,23.4060159 C62.9747952,23.4060159 61.0845798,21.5064088 61.0845798,19.170223 C61.0845798,16.8340372 62.9747952,14.9344301 65.2970824,14.9344301 C67.6191064,14.9344301 69.5095851,16.8340372 69.5095851,19.170223 C69.5095851,21.5064088 67.6191064,23.4060159 65.2970824,23.4060159 Z M65.2970824,17.0521941 C64.1348856,17.0521941 63.1906995,18.0023948 63.1906995,19.170223 C63.1906995,20.3380511 64.1348856,21.2882518 65.2970824,21.2882518 C66.459016,21.2882518 67.4032021,20.3380511 67.4032021,19.170223 C67.4032021,18.0023948 66.459016,17.0521941 65.2970824,17.0521941 Z" id="Shape"></path>
                <path d="M6.32178191,27.6418089 C3.99949468,27.6418089 2.10927926,25.7422017 2.10927926,23.4060159 C2.10927926,21.0698301 3.99949468,19.170223 6.32178191,19.170223 C8.64380585,19.170223 10.5342846,21.0698301 10.5342846,23.4060159 C10.5342846,25.7422017 8.64406915,27.6418089 6.32178191,27.6418089 Z M6.32178191,21.2879871 C5.15958511,21.2879871 4.21539894,22.2381878 4.21539894,23.4060159 C4.21539894,24.5738441 5.15958511,25.5240448 6.32178191,25.5240448 C7.48397872,25.5240448 8.4279016,24.5738441 8.4279016,23.4060159 C8.4279016,22.2381878 7.48397872,21.2879871 6.32178191,21.2879871 Z" id="Shape"></path>
                <path d="M49.5,10.7007551 C46.5955612,10.7007551 44.2343059,8.32538579 44.2343059,5.40594778 C44.2343059,2.48677453 46.5955612,0.111140422 49.5,0.111140422 C52.4044388,0.111140422 54.7656941,2.48650977 54.7656941,5.40594778 C54.7656941,8.32538579 52.4044388,10.7007551 49.5,10.7007551 Z M49.5,2.22916927 C47.757758,2.22916927 46.3404255,3.65433793 46.3404255,5.40594778 C46.3404255,7.15782239 47.757758,8.58299105 49.5,8.58299105 C51.242242,8.58299105 52.6595745,7.15808715 52.6595745,5.40594778 C52.6595745,3.65407317 51.242242,2.22916927 49.5,2.22916927 Z" id="Shape"></path>
                <path d="M49.5,14.9365481 C46.5955612,14.9365481 44.2343059,12.5611787 44.2343059,9.64174072 C44.2343059,9.05663525 44.7053457,8.5827263 45.2874973,8.5827263 C45.8696489,8.5827263 46.3406888,9.0563705 46.3406888,9.64174072 C46.3406888,11.3936153 47.7580213,12.818784 49.5002633,12.818784 C51.2425053,12.818784 52.6598378,11.3938801 52.6598378,9.64174072 C52.6598378,9.05663525 53.1308777,8.5827263 53.7130293,8.5827263 C54.2949176,8.5827263 54.7659574,9.0563705 54.7659574,9.64174072 C54.7656941,12.5611787 52.4044388,14.9365481 49.5,14.9365481 Z" id="Shape"></path>
                <path d="M45.2874973,10.7007551 C44.705609,10.7007551 44.2343059,10.2271109 44.2343059,9.64174072 L44.2343059,5.40594778 C44.2343059,4.82084231 44.7053457,4.34693336 45.2874973,4.34693336 C45.8696489,4.34693336 46.3406888,4.82057756 46.3406888,5.40594778 L46.3406888,9.64174072 C46.3404255,10.2271109 45.8693856,10.7007551 45.2874973,10.7007551 Z" id="Shape"></path>
                <path d="M53.712766,10.7007551 C53.1306144,10.7007551 52.6595745,10.2271109 52.6595745,9.64174072 L52.6595745,5.40594778 C52.6595745,4.82084231 53.1306144,4.34693336 53.712766,4.34693336 C54.2946543,4.34693336 54.7656941,4.82057756 54.7656941,5.40594778 L54.7656941,9.64174072 C54.7656941,10.2271109 54.2946543,10.7007551 53.712766,10.7007551 Z" id="Shape"></path>
                <path d="M49.5,7.52397663 C48.9181117,7.52397663 48.4468085,7.05033243 48.4468085,6.46496221 L48.4468085,4.34693336 C48.4468085,3.76182789 48.9178484,3.28791894 49.5,3.28791894 C50.0821516,3.28791894 50.5531915,3.76156314 50.5531915,4.34693336 L50.5531915,6.46496221 C50.5531915,7.05033243 50.0821516,7.52397663 49.5,7.52397663 Z" id="Shape"></path>
            </g>
        </g>
    </g>
</svg>