<?xml version="1.0" encoding="UTF-8"?>
<svg width="50px" height="50px" viewBox="0 0 50 50" version="1.1" xmlns="http://www.w3.org/2000/svg" xmlns:xlink="http://www.w3.org/1999/xlink">
    <!-- Generator: Sketch 47.1 (45422) - http://www.bohemiancoding.com/sketch -->
    <title>graph</title>
    <desc>Created with Sketch.</desc>
    <defs></defs>
    <g id="Page-1" stroke="none" stroke-width="1" fill="none" fill-rule="evenodd">
        <g id="Atlas-(landing-page)" transform="translate(-648.000000, -549.000000)" fill-rule="nonzero" fill="#4882C2">
            <g id="graph" transform="translate(648.000000, 549.000000)">
                <path d="M48.998573,48.3486094 C48.998573,49.0152567 48.4152567,49.598573 47.7486094,49.598573 L1.2499636,49.598573 C0.583316346,49.598573 0,49.0152567 0,48.3486094 L0,1.8499636 C0,1.18331635 0.583316346,0.6 1.2499636,0.6 C1.91661085,0.6 2.4999272,1.18331635 2.4999272,1.8499636 L2.4999272,47.0986458 L47.7486094,47.0986458 C48.4152567,47.0986458 48.998573,47.6819622 48.998573,48.3486094 Z M49.7485512,10.2663852 L45.6653368,4.26655989 C45.498675,4.01656717 45.1653513,3.76657445 44.8320277,3.76657445 C44.4987041,3.68324354 44.1653805,3.76657445 43.9153877,3.93323626 L37.9155625,8.01645068 C37.3322461,8.43310521 37.1655843,9.18308337 37.5822388,9.76639972 C37.9988934,10.3497161 38.7488715,10.5163779 39.3321879,10.0997233 L42.9987478,7.59979615 C38.9988643,40.5988351 8.66641428,40.0155188 7.33311978,39.9321879 C6.58314162,39.848857 6.08315618,40.4321733 6.08315618,41.1821515 C6.08315618,41.8487987 6.58314162,42.4321151 7.24978887,42.4321151 C7.24978887,42.4321151 7.33311978,42.4321151 7.49978159,42.4321151 C10.4996942,42.4321151 41.1654678,41.598806 45.4153441,8.2664434 L47.7486094,11.6830106 C47.9986022,12.0163342 48.4152567,12.2663269 48.7485803,12.2663269 C48.998573,12.2663269 49.2485658,12.182996 49.4152276,12.0163342 C49.9985439,11.5996797 50.1652057,10.7663706 49.7485512,10.2663852 Z" id="Shape"></path>
            </g>
        </g>
    </g>
</svg>