<?xml version="1.0" encoding="UTF-8"?>
<svg width="172px" height="172px" viewBox="0 0 172 172" version="1.1" xmlns="http://www.w3.org/2000/svg" xmlns:xlink="http://www.w3.org/1999/xlink">
    <!-- Generator: Sketch 47.1 (45422) - http://www.bohemiancoding.com/sketch -->
    <title>547793ef4bd269a320000705_vk_logo</title>
    <desc>Created with Sketch.</desc>
    <defs></defs>
    <g id="Page-1" stroke="none" stroke-width="1" fill="none" fill-rule="evenodd">
        <g id="547793ef4bd269a320000705_vk_logo" fill-rule="nonzero" fill="#FFFFFF">
            <path d="M172,86 C172,38.5035115 133.496489,0 86,0 C38.5035115,0 0,38.5035115 0,86 C0,133.496489 38.5035115,172 86,172 C133.496489,172 172,133.496489 172,86 Z M10.75,86 C10.75,44.4405726 44.4405726,10.75 86,10.75 C127.559427,10.75 161.25,44.4405726 161.25,86 C161.25,127.559427 127.559427,161.25 86,161.25 C44.4405726,161.25 10.75,127.559427 10.75,86 Z" id="Oval-1"></path>
            <g id="instagram" transform="translate(44.000000, 44.000000)">
                <path d="M61.3034297,0 L22.6965703,0 C10.1817187,0 0,10.1817187 0,22.6965703 L0,61.3034297 C0,73.8182812 10.1817187,84 22.6965703,84 L61.3034297,84 C73.8182812,84 84,73.8182812 84,61.3034297 L84,22.6965703 C84,10.1817187 73.8182812,0 61.3034297,0 Z M77.2137188,61.3034297 C77.2137188,70.0763438 70.0765078,77.2137188 61.3034297,77.2137188 L22.6965703,77.2137188 C13.9236563,77.2137188 6.78628125,70.0765078 6.78628125,61.3034297 L6.78628125,22.6965703 C6.78628125,13.9236563 13.9234922,6.78628125 22.6965703,6.78628125 L61.3034297,6.78628125 C70.0763438,6.78628125 77.2137188,13.9234922 77.2137188,22.6965703 L77.2137188,61.3034297 L77.2137188,61.3034297 Z" id="Shape"></path>
                <path d="M60.7906236,39.2114872 C60.1883601,35.1495867 58.3354069,31.4681119 55.4321325,28.5645323 C52.5288581,25.6611182 48.8477703,23.8078047 44.7864623,23.2056433 C42.9373146,22.9314522 41.0625211,22.9314522 39.2135388,23.2056433 C34.1942346,23.9501127 29.7654465,26.6046533 26.7427122,30.6804537 C23.7199779,34.756254 22.4649863,39.7654955 23.2093775,44.7849965 C23.9537686,49.8046629 26.6080302,54.2339166 30.6834021,57.2571342 C33.9918807,59.7112852 37.9148667,61 41.9597945,61 C42.8974394,61 43.8418681,60.9308317 44.7862968,60.7906749 C49.805601,60.0462055 54.2343891,57.3916649 57.2571235,53.3158645 C60.2800232,49.2402297 61.5350148,44.2311536 60.7906236,39.2114872 Z M43.782469,54.0199582 C40.5717755,54.4968554 37.3677003,53.6934772 34.760594,51.7595776 C32.1534877,49.8256781 30.4555678,46.9920942 29.9795479,43.7810632 C29.5033626,40.5700321 30.3059946,37.3656201 32.2396908,34.7582397 C34.1735525,32.1508593 37.0066731,30.4527609 40.2175321,29.9765255 C40.8088755,29.8888241 41.4043553,29.8449733 41.9998351,29.8449733 C42.5953149,29.8449733 43.1909602,29.8888241 43.7823036,29.976691 C49.1151489,30.7674932 53.2295686,34.88218 54.0204532,40.2157514 C55.0032679,46.8443256 50.4106773,53.0370401 43.782469,54.0199582 Z" id="Shape"></path>
                <path d="M65.9748586,18.0251414 C65.3230189,17.373471 64.4209012,17 63.5,17 C62.5790988,17 61.6769811,17.3733017 61.0251414,18.0251414 C60.373471,18.6769811 60,19.5775758 60,20.5 C60,21.4224242 60.373471,22.3230189 61.0251414,22.9748586 C61.6769811,23.626529 62.5790988,24 63.5,24 C64.4209012,24 65.3230189,23.6266983 65.9748586,22.9748586 C66.626529,22.3230189 67,21.4209012 67,20.5 C67,19.5789296 66.626529,18.6768119 65.9748586,18.0251414 Z" id="Shape"></path>
            </g>
        </g>
    </g>
</svg>