<?xml version="1.0" encoding="UTF-8"?>
<svg width="172px" height="172px" viewBox="0 0 172 172" version="1.1" xmlns="http://www.w3.org/2000/svg" xmlns:xlink="http://www.w3.org/1999/xlink">
    <!-- Generator: Sketch 47.1 (45422) - http://www.bohemiancoding.com/sketch -->
    <title>547793ef4bd269a320000705_vk_logo copy</title>
    <desc>Created with Sketch.</desc>
    <defs></defs>
    <g id="Page-1" stroke="none" stroke-width="1" fill="none" fill-rule="evenodd">
        <g id="547793ef4bd269a320000705_vk_logo-copy" fill-rule="nonzero" fill="#FFFFFF">
            <path d="M172,86 C172,133.496489 133.496489,172 86,172 C38.5035115,172 0,133.496489 0,86 C0,38.5035115 38.5035115,0 86,0 C133.496489,0 172,38.5035115 172,86 Z M105.30343,44 L66.6965703,44 C54.1817188,44 44,54.1817188 44,66.6965703 L44,105.30343 C44,117.818281 54.1817188,128 66.6965703,128 L105.30343,128 C117.818281,128 128,117.818281 128,105.30343 L128,66.6965703 C128,54.1817188 117.818281,44 105.30343,44 Z" id="Oval-1"></path>
            <g id="instagram" transform="translate(50.000000, 50.000000)">
                <path d="M54.7906236,33.2114872 C54.1883601,29.1495867 52.3354069,25.4681119 49.4321325,22.5645323 C46.5288581,19.6611182 42.8477703,17.8078047 38.7864623,17.2056433 C36.9373146,16.9314522 35.0625211,16.9314522 33.2135388,17.2056433 C28.1942346,17.9501127 23.7654465,20.6046533 20.7427122,24.6804537 C17.7199779,28.756254 16.4649863,33.7654955 17.2093775,38.7849965 C17.9537686,43.8046629 20.6080302,48.2339166 24.6834021,51.2571342 C27.9918807,53.7112852 31.9148667,55 35.9597945,55 C36.8974394,55 37.8418681,54.9308317 38.7862968,54.7906749 C43.805601,54.0462055 48.2343891,51.3916649 51.2571235,47.3158645 C54.2800232,43.2402297 55.5350148,38.2311536 54.7906236,33.2114872 Z M37.782469,48.0199582 C34.5717755,48.4968554 31.3677003,47.6934772 28.760594,45.7595776 C26.1534877,43.8256781 24.4555678,40.9920942 23.9795479,37.7810632 C23.5033626,34.5700321 24.3059946,31.3656201 26.2396908,28.7582397 C28.1735525,26.1508593 31.0066731,24.4527609 34.2175321,23.9765255 C34.8088755,23.8888241 35.4043553,23.8449733 35.9998351,23.8449733 C36.5953149,23.8449733 37.1909602,23.8888241 37.7823036,23.976691 C43.1151489,24.7674932 47.2295686,28.88218 48.0204532,34.2157514 C49.0032679,40.8443256 44.4106773,47.0370401 37.782469,48.0199582 Z" id="Shape"></path>
                <path d="M59.9748586,12.0251414 C59.3230189,11.373471 58.4209012,11 57.5,11 C56.5790988,11 55.6769811,11.3733017 55.0251414,12.0251414 C54.373471,12.6769811 54,13.5775758 54,14.5 C54,15.4224242 54.373471,16.3230189 55.0251414,16.9748586 C55.6769811,17.626529 56.5790988,18 57.5,18 C58.4209012,18 59.3230189,17.6266983 59.9748586,16.9748586 C60.626529,16.3230189 61,15.4209012 61,14.5 C61,13.5789296 60.626529,12.6768119 59.9748586,12.0251414 Z" id="Shape"></path>
            </g>
        </g>
    </g>
</svg>