<?xml version="1.0" encoding="UTF-8"?>
<svg width="27px" height="52px" viewBox="0 0 27 52" version="1.1" xmlns="http://www.w3.org/2000/svg" xmlns:xlink="http://www.w3.org/1999/xlink">
    <!-- Generator: Sketch 47.1 (45422) - http://www.bohemiancoding.com/sketch -->
    <title>Group 5</title>
    <desc>Created with Sketch.</desc>
    <defs>
        <linearGradient x1="50%" y1="5.13867188%" x2="50%" y2="100%" id="linearGradient-1">
            <stop stop-color="#6293E7" stop-opacity="0.855213995" offset="0%"></stop>
            <stop stop-color="#6293E7" stop-opacity="0.859148551" offset="100%"></stop>
        </linearGradient>
        <path d="M3,1 L7.06274414,1 L7.04300814,1.97986248 L7.04300814,1.97986248 C7.0318865,2.53203524 7.47049509,2.98867558 8.02266784,2.99979722 C8.0293795,2.9999324 8.03609234,3 8.04280536,3 L19.0015705,3 L19.0015705,3 C19.5449632,3 19.9889092,2.56607234 20.0013101,2.0228212 L20.0246582,1 L24,1 L24,1 C25.1045695,1 26,1.8954305 26,3 L26,49 L26,49 C26,50.1045695 25.1045695,51 24,51 L3,51 L3,51 C1.8954305,51 1,50.1045695 1,49 L1,3 L1,3 C1,1.8954305 1.8954305,1 3,1 Z" id="path-2"></path>
        <linearGradient x1="83.375%" y1="26.1160714%" x2="12.7955048%" y2="97.3671782%" id="linearGradient-4">
            <stop stop-color="#FFFFFF" stop-opacity="0.597882699" offset="0%"></stop>
            <stop stop-color="#FFFFFF" stop-opacity="0.320538949" offset="100%"></stop>
        </linearGradient>
    </defs>
    <g id="Page-1" stroke="none" stroke-width="1" fill="none" fill-rule="evenodd">
        <g id="Atlas-(landing-page)" transform="translate(-567.000000, -929.000000)">
            <g id="Group-7" transform="translate(480.000000, 874.000000)">
                <g id="Group-5" transform="translate(87.000000, 55.000000)">
                    <rect id="Rectangle-7" fill="#1E4CD1" x="0" y="0" width="27" height="52" rx="3"></rect>
                    <mask id="mask-3" fill="white">
                        <use xlink:href="#path-2"></use>
                    </mask>
                    <use id="Rectangle-8" fill="url(#linearGradient-1)" xlink:href="#path-2"></use>
                    <rect id="Rectangle-3-Copy" fill-opacity="0.346099411" fill="#FFFFFF" mask="url(#mask-3)" x="3" y="40" width="21" height="2" rx="1"></rect>
                    <rect id="Rectangle-3-Copy-14" fill-opacity="0.346099411" fill="#FFFFFF" mask="url(#mask-3)" x="3" y="44" width="18" height="2" rx="1"></rect>
                    <rect id="Rectangle-9" fill="url(#linearGradient-4)" mask="url(#mask-3)" x="3" y="11" width="21" height="19" rx="1"></rect>
                    <rect id="Rectangle-9-Copy-2" fill="#D3EB54" mask="url(#mask-3)" x="3" y="32" width="21" height="6" rx="3"></rect>
                    <rect id="Rectangle-9-Copy" fill-opacity="0.452615489" fill="#FFFFFF" mask="url(#mask-3)" x="3" y="6" width="15" height="3" rx="1.5"></rect>
                </g>
            </g>
        </g>
    </g>
</svg>