<?xml version="1.0" encoding="UTF-8"?>
<svg width="94px" height="29px" viewBox="0 0 94 29" version="1.1" xmlns="http://www.w3.org/2000/svg" xmlns:xlink="http://www.w3.org/1999/xlink">
    <!-- Generator: Sketch 51 (57462) - http://www.bohemiancoding.com/sketch -->
    <title>Group 3</title>
    <desc>Created with Sketch.</desc>
    <defs></defs>
    <g id="Page-1" stroke="none" stroke-width="1" fill="none" fill-rule="evenodd">
        <g id="case1" transform="translate(-70.000000, -46.000000)">
            <g id="Group-3" transform="translate(70.000000, 46.000000)">
                <path d="M10.5625,12.5415039 C9.6712195,12.5415039 8.84017313,12.710122 8.06933594,13.0473633 C7.29849875,13.3846046 6.6300484,13.8392712 6.06396484,14.411377 C5.49788128,14.9834827 5.04923668,15.6549441 4.71801758,16.4257812 C4.38679847,17.1966184 4.22119141,18.0156207 4.22119141,18.8828125 C4.22119141,19.7500043 4.38679847,20.5690066 4.71801758,21.3398438 C5.04923668,22.1106809 5.49788128,22.7821423 6.06396484,23.354248 C6.6300484,23.9263538 7.29849875,24.3810204 8.06933594,24.7182617 C8.84017313,25.055503 9.6712195,25.2241211 10.5625,25.2241211 C11.4417362,25.2241211 12.2667605,25.055503 13.0375977,24.7182617 C13.8084348,24.3810204 14.4798962,23.9233427 15.052002,23.3452148 C15.6241077,22.767087 16.0757633,22.0956256 16.4069824,21.3308105 C16.7382015,20.5659955 16.9038086,19.7500043 16.9038086,18.8828125 C16.9038086,18.0156207 16.7382015,17.1996295 16.4069824,16.4348145 C16.0757633,15.6699994 15.6241077,14.998538 15.052002,14.4204102 C14.4798962,13.8422823 13.8084348,13.3846046 13.0375977,13.0473633 C12.2667605,12.710122 11.4417362,12.5415039 10.5625,12.5415039 Z M16.9038086,27.1210938 L16.9038086,26.7597656 C16.0004838,27.4824255 15.0188855,28.0364564 13.9589844,28.421875 C12.8990832,28.8072936 11.7669331,29 10.5625,29 C7.7682152,29 5.38347342,28.0123797 3.40820312,26.0371094 C1.43293283,24.0618391 0.4453125,21.6770973 0.4453125,18.8828125 C0.4453125,16.0885277 1.43293283,13.7037859 3.40820312,11.7285156 C5.38347342,9.75324533 7.7682152,8.765625 10.5625,8.765625 C13.3326961,8.765625 15.7174379,9.75324533 17.7167969,11.7285156 C19.6920672,13.7037859 20.6796875,16.0885277 20.6796875,18.8828125 L20.6796875,27.1210938 C20.6796875,27.639 20.4960142,28.0816225 20.1286621,28.4489746 C19.76131,28.8163267 19.3186875,29 18.8007812,29 C18.2708307,29 17.8221861,28.8163267 17.454834,28.4489746 C17.0874819,28.0816225 16.9038086,27.639 16.9038086,27.1210938 Z M25.3408203,8.765625 L26.1899414,8.765625 L26.1899414,1.97265625 C26.1899414,1.45475001 26.3736147,1.01212749 26.7409668,0.644775391 C27.1083189,0.277423293 27.5569635,0.09375 28.0869141,0.09375 C28.6048203,0.09375 29.0474428,0.277423293 29.4147949,0.644775391 C29.782147,1.01212749 29.9658203,1.45475001 29.9658203,1.97265625 L29.9658203,8.765625 L32.2241211,8.765625 C32.7420273,8.765625 33.1816388,8.94929829 33.5429688,9.31665039 C33.9042987,9.68400249 34.0849609,10.126625 34.0849609,10.6445312 C34.0849609,11.1744818 33.9042987,11.6231264 33.5429688,11.9904785 C33.1816388,12.3578306 32.7420273,12.5415039 32.2241211,12.5415039 L29.9658203,12.5415039 L29.9658203,21.6289062 C29.9658203,24.0257281 31.1702354,25.2241211 33.5791016,25.2241211 C34.0970078,25.2241211 34.5366193,25.4077944 34.8979492,25.7751465 C35.2592792,26.1424986 35.4399414,26.5851211 35.4399414,27.1030273 C35.4399414,27.6329779 35.2592792,28.0816225 34.8979492,28.4489746 C34.5366193,28.8163267 34.0970078,29 33.5791016,29 C28.6529702,29 26.1899414,26.5429933 26.1899414,21.6289062 L26.1899414,12.5415039 L25.3408203,12.5415039 C24.8349584,12.5415039 24.398358,12.3578306 24.0310059,11.9904785 C23.6636538,11.6231264 23.4799805,11.1744818 23.4799805,10.6445312 C23.4799805,10.126625 23.6636538,9.68400249 24.0310059,9.31665039 C24.398358,8.94929829 24.8349584,8.765625 25.3408203,8.765625 Z M37.8427734,27.1210938 L37.8427734,1.99072266 C37.8427734,1.46077209 38.0204247,1.01212749 38.3757324,0.644775391 C38.7310402,0.277423293 39.1796848,0.09375 39.7216797,0.09375 C40.2636746,0.09375 40.7123192,0.277423293 41.067627,0.644775391 C41.4229347,1.01212749 41.6005859,1.46077209 41.6005859,1.99072266 L41.6005859,25.2241211 L42.4677734,25.2241211 C42.9856797,25.2241211 43.4283022,25.4077944 43.7956543,25.7751465 C44.1630064,26.1424986 44.3466797,26.5911432 44.3466797,27.1210938 C44.3466797,27.639 44.1630064,28.0816225 43.7956543,28.4489746 C43.4283022,28.8163267 42.9856797,29 42.4677734,29 L39.7036133,29 C39.185707,29 38.7460956,28.8163267 38.3847656,28.4489746 C38.0234357,28.0816225 37.8427734,27.639 37.8427734,27.1210938 Z M56.8125,12.5415039 C55.9212195,12.5415039 55.0901731,12.710122 54.3193359,13.0473633 C53.5484988,13.3846046 52.8800484,13.8392712 52.3139648,14.411377 C51.7478813,14.9834827 51.2992367,15.6549441 50.9680176,16.4257812 C50.6367985,17.1966184 50.4711914,18.0156207 50.4711914,18.8828125 C50.4711914,19.7500043 50.6367985,20.5690066 50.9680176,21.3398438 C51.2992367,22.1106809 51.7478813,22.7821423 52.3139648,23.354248 C52.8800484,23.9263538 53.5484988,24.3810204 54.3193359,24.7182617 C55.0901731,25.055503 55.9212195,25.2241211 56.8125,25.2241211 C57.6917362,25.2241211 58.5167605,25.055503 59.2875977,24.7182617 C60.0584348,24.3810204 60.7298962,23.9233427 61.302002,23.3452148 C61.8741077,22.767087 62.3257633,22.0956256 62.6569824,21.3308105 C62.9882015,20.5659955 63.1538086,19.7500043 63.1538086,18.8828125 C63.1538086,18.0156207 62.9882015,17.1996295 62.6569824,16.4348145 C62.3257633,15.6699994 61.8741077,14.998538 61.302002,14.4204102 C60.7298962,13.8422823 60.0584348,13.3846046 59.2875977,13.0473633 C58.5167605,12.710122 57.6917362,12.5415039 56.8125,12.5415039 Z M63.1538086,27.1210938 L63.1538086,26.7597656 C62.2504838,27.4824255 61.2688855,28.0364564 60.2089844,28.421875 C59.1490832,28.8072936 58.0169331,29 56.8125,29 C54.0182152,29 51.6334734,28.0123797 49.6582031,26.0371094 C47.6829328,24.0618391 46.6953125,21.6770973 46.6953125,18.8828125 C46.6953125,16.0885277 47.6829328,13.7037859 49.6582031,11.7285156 C51.6334734,9.75324533 54.0182152,8.765625 56.8125,8.765625 C59.5826961,8.765625 61.9674379,9.75324533 63.9667969,11.7285156 C65.9420672,13.7037859 66.9296875,16.0885277 66.9296875,18.8828125 L66.9296875,27.1210938 C66.9296875,27.639 66.7460142,28.0816225 66.3786621,28.4489746 C66.01131,28.8163267 65.5686875,29 65.0507812,29 C64.5208307,29 64.0721861,28.8163267 63.704834,28.4489746 C63.3374819,28.0816225 63.1538086,27.639 63.1538086,27.1210938 Z M73.5058594,19.3706055 C72.3736923,18.9370096 71.5787783,18.491376 71.1210938,18.0336914 L71.1391602,18.0336914 C70.223791,17.1062779 69.7661133,16.0162823 69.7661133,14.7636719 C69.7661133,13.8483027 70.0100073,13.0202674 70.4978027,12.279541 C70.9855981,11.5388147 71.6209271,10.9095078 72.4038086,10.3916016 C73.1866901,9.87369533 74.0689241,9.47322733 75.0505371,9.19018555 C76.0321501,8.90714377 77.0167594,8.765625 78.0043945,8.765625 C81.0154773,8.765625 83.5989476,9.97606211 85.7548828,12.3969727 C86.0078138,12.7101253 86.1342773,13.089516 86.1342773,13.5351562 C86.1342773,14.0771511 85.9566261,14.5257957 85.6013184,14.8811035 C85.2460106,15.2364113 84.797366,15.4140625 84.2553711,15.4140625 C83.8699525,15.4140625 83.5417494,15.3056651 83.270752,15.0888672 C82.9997545,14.8720692 82.7377942,14.6372083 82.4848633,14.3842773 C81.2563415,13.1557556 79.7628669,12.5415039 78.0043945,12.5415039 C76.2700109,12.5415039 74.8849336,13.0714465 73.8491211,14.1313477 C73.6564118,14.324057 73.5600586,14.5890283 73.5600586,14.9262695 C73.5600586,15.2635108 73.7166325,15.4923497 74.0297852,15.612793 L82.4848633,18.3950195 C83.6652077,18.8527041 84.4601217,19.2983377 84.8696289,19.7319336 L84.8515625,19.7319336 C85.7669317,20.6593471 86.2246094,21.7493427 86.2246094,23.0019531 C86.2246094,23.9293666 85.9807153,24.760413 85.4929199,25.4951172 C85.0051245,26.2298214 84.3697956,26.8591282 83.5869141,27.3830566 C82.8040325,27.906985 81.9248096,28.307453 80.9492188,28.5844727 C79.9736279,28.8614923 78.9920297,29 78.0043945,29 C74.9692231,29 72.3857528,27.801607 70.2539062,25.4047852 C69.988931,25.0554996 69.8564453,24.6640647 69.8564453,24.2304688 C69.8564453,23.6884739 70.0340965,23.2398293 70.3894043,22.8845215 C70.7447121,22.5292137 71.1933567,22.3515625 71.7353516,22.3515625 C72.1328145,22.3515625 72.4700507,22.468993 72.7470703,22.7038574 C73.0240899,22.9387219 73.2770171,23.1645497 73.5058594,23.3813477 C74.7343811,24.6098694 76.2338779,25.2241211 78.0043945,25.2241211 C79.7267339,25.2241211 81.1118112,24.6821343 82.159668,23.5981445 C82.3403329,23.3933909 82.4306641,23.1464858 82.4306641,22.8574219 C82.4306641,22.5201806 82.268068,22.2853197 81.9428711,22.152832 L73.5058594,19.3706055 Z" id="atlas." fill="#111111"></path>
                <path d="M93.722168,26.4345703 C93.722168,27.1451858 93.4722518,27.7504044 92.9724121,28.2502441 C92.4725724,28.7500839 91.8673538,29 91.1567383,29 C90.4461227,29 89.8409042,28.7500839 89.3410645,28.2502441 C88.8412247,27.7504044 88.5913086,27.1451858 88.5913086,26.4345703 C88.5913086,25.7239548 88.8412247,25.1187362 89.3410645,24.6188965 C89.8409042,24.1190567 90.4461227,23.8691406 91.1567383,23.8691406 C91.8673538,23.8691406 92.4725724,24.1190567 92.9724121,24.6188965 C93.4722518,25.1187362 93.722168,25.7239548 93.722168,26.4345703 Z" id="Path" fill="#3348CA"></path>
            </g>
        </g>
    </g>
</svg>