<?xml version="1.0" encoding="UTF-8"?>
<svg width="337px" height="254px" viewBox="0 0 337 254" version="1.1" xmlns="http://www.w3.org/2000/svg" xmlns:xlink="http://www.w3.org/1999/xlink">
    <!-- Generator: Sketch 47.1 (45422) - http://www.bohemiancoding.com/sketch -->
    <title>photo copy</title>
    <desc>Created with Sketch.</desc>
    <defs>
        <filter x="-1.0%" y="-1.3%" width="101.9%" height="102.6%" filterUnits="objectBoundingBox" id="filter-1">
            <feGaussianBlur stdDeviation="1" in="SourceGraphic"></feGaussianBlur>
        </filter>
    </defs>
    <g id="Page-1" stroke="none" stroke-width="1" fill="none" fill-rule="evenodd">
        <g id="Atlas-(landing-page)" transform="translate(-829.000000, -740.000000)" fill-rule="nonzero" fill="#D4ED4B">
            <g id="photo-copy" transform="translate(840.000000, 736.000000)">
                <g id="Group" transform="translate(0.000000, 0.196936)">
                    <path d="M44.7777778,0.24744 C42.4021444,0.281884444 41.3863778,2.32581778 41.3333333,3.69188444 L41.3333333,27.8029956 L27.5555556,27.8029956 C12.3493663,27.8029956 3.44444445e-07,40.1523622 3.44444445e-07,55.3585511 L3.44444445e-07,206.914244 C3.44444445e-07,222.120433 12.3493663,234.4698 27.5555556,234.4698 L282.444444,234.4698 C297.650633,234.4698 310,222.120433 310,206.914244 L310,55.3585511 C310,40.1523622 297.650633,27.8029956 282.444444,27.8029956 L110.222222,27.8029956 L110.222222,3.69188444 C110.221878,1.88837333 108.581289,0.24744 106.777778,0.24744 L44.7777778,0.24744 Z M48.2222222,7.13632889 L103.333333,7.13632889 L103.333333,27.8029956 L48.2222222,27.8029956 L48.2222222,7.13632889 Z M27.5555556,34.6918844 L282.444444,34.6918844 C293.953367,34.6918844 303.111111,43.8496289 303.111111,55.3585511 L303.111111,206.914244 C303.111111,218.423167 293.953367,227.580911 282.444444,227.580911 L27.5555556,227.580911 C16.046633,227.580911 6.88888854,218.423167 6.88888854,206.914244 L6.88888854,55.3585511 C6.88888854,43.8496289 16.046633,34.6918844 27.5555556,34.6918844 Z M155,58.8029956 C115.092667,58.8029956 82.6666667,91.2286511 82.6666667,131.136467 C82.6666667,171.044144 115.092667,203.4698 155,203.4698 C194.908022,203.4698 227.333333,171.044144 227.333333,131.136467 C227.333333,91.2286511 194.908022,58.8029956 155,58.8029956 Z M265.222222,58.8029956 C257.653744,58.8029956 251.444444,65.0122956 251.444444,72.5807733 C251.444444,80.1492511 257.653744,86.3585511 265.222222,86.3585511 C272.7907,86.3585511 279,80.1492511 279,72.5807733 C279,65.0122956 272.7907,58.8029956 265.222222,58.8029956 Z M155,65.6918844 C191.185267,65.6918844 220.444444,94.9517511 220.444444,131.136467 C220.444444,167.321044 191.185267,196.580911 155,196.580911 C118.815422,196.580911 89.5555556,167.321044 89.5555556,131.136467 C89.5555556,94.9517511 118.815422,65.6918844 155,65.6918844 Z M265.222222,65.6918844 C269.067256,65.6918844 272.111111,68.7353956 272.111111,72.5807733 C272.111111,76.4261511 269.067256,79.4696622 265.222222,79.4696622 C261.377189,79.4696622 258.333333,76.4261511 258.333333,72.5807733 C258.333333,68.7353956 261.377189,65.6918844 265.222222,65.6918844 Z M155,86.3585511 C130.310911,86.3585511 110.222222,106.44724 110.222222,131.136467 C110.222222,155.825556 130.310911,175.914244 155,175.914244 C179.689089,175.914244 199.777778,155.825556 199.777778,131.136467 C199.777778,106.44724 179.689089,86.3585511 155,86.3585511 Z M155,93.24744 C175.965989,93.24744 192.888889,110.170478 192.888889,131.136467 C192.888889,152.102456 175.965989,169.025356 155,169.025356 C134.034011,169.025356 117.111111,152.102456 117.111111,131.136467 C117.111111,110.170478 134.034011,93.24744 155,93.24744 Z" id="Shape" filter="url(#filter-1)" transform="translate(155.000000, 117.358620) rotate(-10.000000) translate(-155.000000, -117.358620) "></path>
                </g>
            </g>
        </g>
    </g>
</svg>