<?xml version="1.0" encoding="UTF-8"?>
<svg width="50px" height="41px" viewBox="0 0 50 41" version="1.1" xmlns="http://www.w3.org/2000/svg" xmlns:xlink="http://www.w3.org/1999/xlink">
    <!-- Generator: Sketch 47.1 (45422) - http://www.bohemiancoding.com/sketch -->
    <title>quote (1)</title>
    <desc>Created with Sketch.</desc>
    <defs></defs>
    <g id="Page-1" stroke="none" stroke-width="1" fill="none" fill-rule="evenodd">
        <g id="Atlas-(landing-page)" transform="translate(-1120.000000, -2058.000000)" fill-rule="nonzero" fill="#FFFFFF">
            <g id="quote-(1)" transform="translate(1120.000000, 2058.000000)">
                <path d="M45.5120765,2.94011032 L44.016102,0 C38.4514225,2.64933018 34.2913415,6.13185731 31.5352416,10.4482027 C28.779759,14.7664121 27.401709,19.6531339 27.401709,25.1083682 C27.401709,29.3992392 28.3191741,32.9743438 30.157809,35.8349245 C32.3625655,39.2789295 35.5378841,41 39.6849995,41 C42.5713721,41 45.0125951,40.0065012 47.0080509,38.0201249 C49.002272,36.0337485 50,33.5583894 50,30.5909408 C50,27.412863 49.015855,24.8834485 47.0475649,23.0026975 C45.0786575,21.123189 42.6244691,20.1818816 39.6849995,20.1818816 C37.5321051,20.1818816 35.5378841,20.8970267 33.7011015,22.3273171 C33.3862245,21.3742044 33.2281685,20.2353155 33.2281685,18.9106505 C33.2281685,15.7860065 34.4351971,12.7005061 36.850489,9.65414921 C39.2645461,6.60841365 42.1521535,4.37040068 45.5120765,2.94011032 L45.5120765,2.94011032 Z M18.1103675,2.94011032 L16.614393,0 C11.0490961,2.64933018 6.88963252,6.13185731 4.13353255,10.4482027 C1.37804998,14.7664121 0,19.6531339 0,25.1083682 C0,29.3992392 0.91746518,32.9743438 2.75548256,35.8349245 C4.96023906,39.2789295 8.13617508,41 12.2832905,41 C14.1200731,41 15.826583,40.5501606 17.4015855,39.6492392 C18.976588,38.7489392 20.236096,37.5038037 21.1813445,35.9144541 C22.1259755,34.3251046 22.598291,32.5512215 22.598291,30.5909408 C22.598291,27.412863 21.600563,24.8834485 19.606342,23.0026975 C17.6108861,21.123189 15.1696631,20.1818816 12.2832905,20.1818816 C10.0785341,20.1818816 8.08307813,20.8970267 6.29877507,22.3273171 C5.98389805,21.3742044 5.82645955,20.2353155 5.82645955,18.9106505 C5.82645955,15.7860065 7.03348809,12.7005061 9.44878,9.65414921 C11.8628371,6.60841365 14.7504445,4.37040068 18.1103675,2.94011032 L18.1103675,2.94011032 Z" id="Shape"></path>
            </g>
        </g>
    </g>
</svg>