<?xml version="1.0" encoding="UTF-8" standalone="no"?>
<svg width="32px" height="32px" viewBox="0 0 32 32" version="1.1" xmlns="http://www.w3.org/2000/svg" xmlns:xlink="http://www.w3.org/1999/xlink" xmlns:sketch="http://www.bohemiancoding.com/sketch/ns">
    <!-- Generator: Sketch Beta 3.2 (9961) - http://www.bohemiancoding.com/sketch -->
    <title>vk_logo 2</title>
    <desc>Created with Sketch Beta.</desc>
    <defs></defs>
    <g id="Page-1" stroke="none" stroke-width="1" fill="none" fill-rule="evenodd" sketch:type="MSPage">
        <g id="vk_logo-2" sketch:type="MSArtboardGroup">
            <path d="M32,16 C32,7.163444 24.836556,0 16,0 C7.163444,0 0,7.163444 0,16 C0,24.836556 7.163444,32 16,32 C24.836556,32 32,24.836556 32,16 Z" id="Oval-1" fill="#FFFFFF" sketch:type="MSShapeGroup"></path>
            <path d="M14.806885,21.9538689 L15.8827638,21.9538689 C15.8827638,21.9538689 16.2076698,21.9155074 16.3737991,21.7240392 C16.526491,21.5480515 16.5216104,21.2178029 16.5216104,21.2178029 C16.5216104,21.2178029 16.500567,19.671392 17.1704717,19.4436671 C17.8311224,19.2192012 18.6792627,20.938205 19.5781736,21.5992454 C20.2579662,22.0993032 20.7745453,21.9898541 20.7745453,21.9898541 L23.1783808,21.9538689 C23.1783808,21.9538689 24.4357911,21.8707636 23.8395385,20.8117138 C23.7907329,20.7252137 23.4921946,20.0283239 22.0521751,18.5965223 C20.5447785,17.0979106 20.7468465,17.340369 22.5624791,14.7481482 C23.6682118,13.1694865 24.1101879,12.2057635 23.9720743,11.7930206 C23.8404893,11.399764 23.0271467,11.5036457 23.0271467,11.5036457 L20.3206529,11.5215703 C20.3206529,11.5215703 20.1198527,11.4923069 19.971154,11.5876336 C19.8256878,11.6808556 19.7323233,11.8986676 19.7323233,11.8986676 C19.7323233,11.8986676 19.3037846,13.1201936 18.7326954,14.1592139 C17.5275134,16.3513206 17.045542,16.4673557 16.8485447,16.3310195 C16.3902155,16.0137392 16.5047503,15.05667 16.5047503,14.3765506 C16.5047503,12.2520689 16.8055704,11.366291 15.918956,11.1370045 C15.6247912,11.0609604 15.4080816,11.0106491 14.6556509,11.0024336 C13.68987,10.9919097 12.872661,11.0056248 12.4098316,11.2484906 C12.1019125,11.4100164 11.8643495,11.7698679 12.0091184,11.7905763 C12.1880512,11.8161054 12.5930745,11.9076978 12.8078193,12.2207007 C13.0852507,12.6250244 13.075553,13.5326649 13.075553,13.5326649 C13.075553,13.5326649 13.2349636,16.033497 12.7033626,16.3440557 C12.338588,16.5571149 11.8381085,16.1221699 10.7636242,14.1333453 C10.2131982,13.1146261 9.79746296,11.9884267 9.79746296,11.9884267 C9.79746296,11.9884267 9.71740906,11.7780155 9.57441492,11.6653751 C9.40099649,11.5289032 9.15867973,11.4856531 9.15867973,11.4856531 L6.58668668,11.5036457 C6.58668668,11.5036457 6.20067855,11.5151881 6.05882532,11.6950459 C5.93262792,11.8551459 6.04874727,12.1858698 6.04874727,12.1858698 C6.04874727,12.1858698 8.06220115,17.2320741 10.3422478,19.7750699 C12.4330935,22.1069076 14.806885,21.9538689 14.806885,21.9538689" id="Fill-4" fill="#000102" sketch:type="MSShapeGroup"></path>
        </g>
    </g>
</svg>