<?xml version="1.0" encoding="UTF-8"?>
<svg width="69px" height="60px" viewBox="0 0 69 60" version="1.1" xmlns="http://www.w3.org/2000/svg" xmlns:xlink="http://www.w3.org/1999/xlink">
    <!-- Generator: Sketch 47.1 (45422) - http://www.bohemiancoding.com/sketch -->
    <title>wallet</title>
    <desc>Created with Sketch.</desc>
    <defs></defs>
    <g id="Page-1" stroke="none" stroke-width="1" fill="none" fill-rule="evenodd">
        <g id="Atlas-(landing-page)" transform="translate(-1012.000000, -166.000000)" fill-rule="nonzero" fill="#742049">
            <g id="wallet" transform="translate(1016.000000, 170.000000)">
                <path d="M62.9333333,17.4933333 L61.6533333,17.4933333 L61.6533333,3.73333333 C61.6533333,1.81333333 60.16,0.32 58.24,0.32 L3.41333333,0.32 C1.49333333,0.32 0,1.81333333 0,3.73333333 L0,47.36 C0,49.28 1.49333333,50.7733333 3.41333333,50.7733333 L58.24,50.7733333 C60.16,50.7733333 61.6533333,49.28 61.6533333,47.36 L61.6533333,33.7066667 L62.9333333,33.7066667 C63.5733333,33.7066667 64,33.28 64,32.64 L64,18.56 C64,18.0266667 63.5733333,17.4933333 62.9333333,17.4933333 Z M59.52,47.4666667 C59.52,48.2133333 58.9866667,48.7466667 58.24,48.7466667 L3.41333333,48.7466667 C2.66666667,48.7466667 2.13333333,48.2133333 2.13333333,47.4666667 L2.13333333,3.73333333 C2.13333333,2.98666667 2.66666667,2.45333333 3.41333333,2.45333333 L58.24,2.45333333 C58.9866667,2.45333333 59.52,2.98666667 59.52,3.73333333 L59.52,17.4933333 L37.3333333,17.4933333 C32.8533333,17.4933333 29.2266667,21.12 29.2266667,25.6 C29.2266667,30.08 32.8533333,33.7066667 37.3333333,33.7066667 L59.52,33.7066667 L59.52,47.4666667 Z M61.8666667,31.5733333 L37.3333333,31.5733333 C34.0266667,31.5733333 31.36,28.9066667 31.36,25.6 C31.36,22.2933333 34.0266667,19.6266667 37.3333333,19.6266667 L61.8666667,19.6266667 L61.8666667,31.5733333 Z M33.92,25.6 C33.92,27.7333333 35.6266667,29.44 37.76,29.44 C39.8933333,29.44 41.6,27.7333333 41.6,25.6 C41.6,23.4666667 39.8933333,21.76 37.76,21.76 C35.6266667,21.76 33.92,23.4666667 33.92,25.6 Z M37.76,23.8933333 C38.72,23.8933333 39.4666667,24.64 39.4666667,25.6 C39.4666667,26.56 38.72,27.3066667 37.76,27.3066667 C36.8,27.3066667 36.0533333,26.56 36.0533333,25.6 C36.0533333,24.64 36.8,23.8933333 37.76,23.8933333 Z" id="Shape" transform="translate(32.000000, 25.546667) rotate(-10.000000) translate(-32.000000, -25.546667) "></path>
            </g>
        </g>
    </g>
</svg>